<svg xmlns="http://www.w3.org/2000/svg" role="img" aria-label="The New York Times" viewBox="0 0 184.5 25" fill="currentColor"><title>The New York Times</title><path d="M14.6 2.6c0-2-2-2.7-3.6-2.6v.2q1.6.1 1.7 1.1t-1.2 1q-1.3-.1-3.2-.8A12 12 0 0 0 4.7.6C2.7.6 1 2.1 1 4c0 1.5 1.2 2 1.7 2.2V6q-.5-.2-.5-1 0-1.1 1.4-1.3 1.5 0 3.8.9l3.8.8v3.3l-1.6 1.3 1.6 1.4V16q-1.3.6-2.6.6-2.3 0-4-1.7l4.3-2V5.6L3.8 8.1A6 6 0 0 1 6.4 5v-.1C3.4 5.7.5 8.6.5 12c0 4.2 3.4 7.3 7.2 7.3 4.2 0 6.7-3.3 6.6-6.8a7 7 0 0 1-2.8 3.3v-4.4l1.6-1.3-1.6-1.4V5.5c1.5 0 3-1 3-3M5.9 14.2l-1.2.6q-1.2-1.5-1.2-4 0-1.2.3-2.4l2.1-1zm19.5-5.7-.8.6L22 6.8 19 9V.5l-3.9 2.7q.9 0 1 1.4v11.8l-1.3 1 .1.1.7-.4 2.3 2.1 3.1-2V17l-.9.5-1-1V9.2l.7-.5 1.7 1.4v6.2c0 4-.9 4.8-2.6 5.4v.1c2.9.1 5.5-.9 5.5-5.9V9.3l1-.8zm5.2 10.8 4.5-3.6-.1-.2-2.4 1.9-2.7-2.2v-1.3l4.7-3.3L32 6.8 27 9.7v6.8l-1 .8.1.1 1-.8zm-.7-5.7V8.4l2.3 3.5zM53.6 1.6q0-.4-.2-1Q53 2.1 51.7 2t-2-1l-3 3.5h.2l.9-.9q.7.8 2.6 1.1v8.6l-6-10.5c-.5-.7-1.3-2-2.7-2-1.6 0-2.9 1.5-2.7 3.8h.1c.2-.5.5-1.3 1.2-1.3s1 .5 1.3 1v3.4q-3 0-3 2.4c0 .6.5 1.9 1.8 2.1q-.3-.3-.3-.7 0-.9 1.1-.9h.4V15c-2.2 0-3.9 1.3-3.9 3.3s1.7 3 3.5 2.8q-1.7-.3-1.7-1.5 0-1.4 1.5-1.4c1.5 0 1.4.5 2 1.1l2.9-3.3-.2-.1-.7.8c-1.1-1-1.9-1.4-3.2-1.6V4.7l8.4 14.5h.4V4.7c1.6 0 3-1.3 3-3m2.9 17.5 4.5-3.7-.1-.1-2.4 1.8-2.7-2.1v-1.3l4.7-3.3L58 6.8l-5.2 2.8v6.8l-1 .8.1.2 1-.8zm-.7-5.7V8.3L58 12zM77 8l-.7.5-2-1.7-2.3 2 1 1v7.7l-2.4-1.6V9.6l.9-.6L69 6.8l-2.2 2 1 1v7.4l-.2.1-2.2-1.6V9.6c0-1.4-.7-1.9-1.6-2.4q-1.2-.7-1.2-1.7c0-.7.7-1 1-1.2-.9 0-3 .8-3.1 2.8q0 1.4 1 2 .9.5 1 1.8v6l-1 .8v.1l1-.7 2.7 2 2.5-1.7 2.7 1.8L76 16V9l1.2-.9zM95 2l-1 1-2.3-2-3.1 2.4V1.2h-.2v17l-1.9-.4V3.6c0-1-.7-2.5-2.6-2.5s-3 1.6-3 3h.1q.2-1.1 1.1-1.2 1.4-.3 1.2 1.7v4q-2.7.4-2.8 2.4c0 .7.4 2 1.8 2v-.1q-.7-.3-.6-.7.1-.9 1.4-.8h.2V18q-2.2 1-2.2 2.8c0 1.7 1.3 3 3.4 3q2 0 3.7-.5l2.8-.4q1.2 0 1.2.9t-.7 1.2q2.6-.4 2.7-2.7c0-2.3-1.5-2.6-3.2-2.6q-1.5 0-3.7.6l-3.1.5c-.7 0-1.6-.4-1.6-1.3q-.1-1.5 2.5-1.6 1.4 0 3 .4 1.8.6 3.2.7c1.5 0 2.8-.6 2.8-2.8V3.3l1-1zM91 9q-.4.5-1.1.5-.8-.1-1.1-.5v-5l.7-.7 1.5 1.3zm0 2.4q-.3-.4-1.1-.5-1 .1-1.1.5V9.1q.3.4 1 .5 1 0 1.2-.5zm0 5.1c0 .8-.4 1.8-1.5 1.8h-.7v-6.6q.3-.5 1.1-.6.7 0 1.1.6zm8.8 2.7 5-3V9l-3.2-2.3-5 2.9v6.7l-1 .8v.2l.9-.7zm-.4-3.5V8.3l2.5 1.9v7.3zm15-8.7-1 .5q-.8 0-1.2-.6l-1.9 2-1.9-2-3 2.1v.2l.9-.6 1.1 1.3v6.6l-1.3 1v.1l.8-.4 2.5 2 3.1-2-.1-.2-.8.5-1.3-1.1V9q.7 1 1.8 1c1.3 0 2.2-1.5 2.3-3m11.9 9.8-1 .5-5.1-7.7.2-.4q.7.7 2.2.8 2.4 0 2.6-3.2a2 2 0 0 1-1.7.8q-1-.1-1.7-.8l-3.5 5.2 4.7 7.2 3.4-2.3zm-6.3.1-.8.6-1-1.1V.4l-4 2.8q.9 0 1 1.4v11.8l-1.3 1 .1.1.7-.4 2.3 2.1 3.1-2zm22.9-14.3c0-2-2-2.7-3.5-2.6v.2q1.6.1 1.7 1.1t-1.3 1q-1.3-.1-3.2-.8a12 12 0 0 0-3.6-.9c-2 0-3.5 1.5-3.5 3.4 0 1.5 1.1 2 1.6 2.2V6q-.5-.2-.5-1c0-.6.4-1.3 1.5-1.3q1.3.1 3.8.8l3.7 1v3.2l-1.6 1.3 1.6 1.4v4.4q-1.2.7-2.6.7a5 5 0 0 1-4-1.7l4.3-2V5.6L132 8.1a6 6 0 0 1 2.6-3.1v-.1c-3 .8-5.9 3.7-5.9 7.2 0 4.2 3.4 7.3 7.2 7.3 4.2 0 6.7-3.3 6.7-6.8h-.1a7 7 0 0 1-2.8 3.3v-4.4l1.7-1.3-1.7-1.4V5.5c1.5 0 3.1-1 3.1-3M134 14.2l-1.2.7q-1.1-1.5-1.2-4.1 0-1.2.3-2.4l2.2-1zm12-12.3-2.2 1.9 1.8 2 2.2-1.8zm3.3 15.2-.8.5-1.1-1V9.2l.9-.8-.1-.1-.8.6-1.8-2.2-3 2.1.2.2.7-.5 1 1.2v6.6l-1.3 1v.2l.8-.5 2.3 2.1 3-2zm16.6-.1-.7.5-1.2-1.1v-7l1-.8-.2-.1-.8.6-2.5-2.2-2.8 2.2-2.4-2.2-2.8 2.1-1.8-2.1-3 2 .1.2.8-.5 1 1.3v6.6l-.8.8 2.4 2 2.3-2-1-1v-7l.6-.5 1.7 1.5v6.2l-.7.8 2.3 2 2.3-2-1-1v-7l.6-.5 1.8 1.5v6l-.7.8 2.4 2.2L166 17zm8.6-1.5-2.4 1.8-2.7-2v-1.4l4.7-3.3-2.4-3.7-5.2 2.9v6.9l3.6 2.6 4.5-3.6zm-5-1.9V8.4l2.2 3.5zm14-1-2-1.5a5 5 0 0 0 1.8-3.7v-.7h-.1q-.3 1-1.5 1c-1.2 0-1.3-.4-1.8-1l-4.6 2.6v3.7l1.8 1.4c-1.8 1.6-2.1 2.5-2.1 3.4s.5 1.7 1.4 2v-.1q-.2-.2-.3-.8c0-.3.3-.9 1.1-.9 1 0 1.6.7 2 1l4.3-2.6zm-1-3c-.7 1.2-2.2 2.4-3.1 3.1l-1.1-1V8.2q.7 1.7 2.5 1.8 1 0 1.7-.4m-2 8.1q-.7-1.9-2.8-2-.6-.1-2 .5c.5-.8 1.9-2.2 3.7-3.3l1.2 1z"/></svg>
