<svg xmlns="http://www.w3.org/2000/svg" role="img" aria-label="The Washington Post" viewBox="0 0 463 72" fill="currentColor"><title>The Washington Post</title><path d="M26.54 22.73v25.04c3.38-1.83 5.75-5 6.9-8.6l.27.14c-.75 8.94-6.84 17.87-16.31 17.87C7.86 57.18.82 50.08.82 38.7c0-8.52 5.55-13.87 12.66-18.68a12 12 0 0 0-3.19-.4c-4.87 0-7.71 3.31-7.71 6.7h-.4q-.09-.72-.07-1.42c0-6.03 3.18-13.33 10.9-13.33 4.93 0 8.72 4.53 14.47 4.53 2.3 0 5.15-1.08 6.3-3.59h.2c-.07 4.4-1.42 8.94-7.44 10.22m3.65 25.65c-3.38 3.59-7.04 6.63-11.77 6.63-8.8 0-15.57-6.9-15.57-16.92 0-5.88 2.44-9.06 5.14-12.79h-.27C6.03 27 1.56 31.26 1.56 38.5c0 11.1 6.97 17.93 16.11 17.93 6.36 0 10.7-4.4 12.66-7.98zm2.7-32.82c-1.14 2.16-3.58 4.94-8.52 4.94S14.9 17.1 10.9 17.1a8.2 8.2 0 0 0-7.1 4.27l.07.13a8.6 8.6 0 0 1 6.42-2.57c5.28 0 8.67 3.25 14.01 3.25 5.69 0 8.26-3.72 8.73-6.56zm-18.8 4.67c-3.46 3.59-6.64 7.51-6.64 15.16 0 4.2 1.42 8.52 4.6 11.23l1.97-1.02V27.47l-1.83.95-.34-.68 9.47-5.14c-2.57-.55-4.87-1.7-7.24-2.37m11.7 2.64q-.7.07-1.49.06c-.94 0-1.82-.06-2.7-.27v19.76l-8.87 4.81a11.2 11.2 0 0 0 6.9 2.17c2.3 0 4.33-.48 6.16-1.3zm-9.74 3.45-1.29.74V45.2l1.29-.68zm38.9 2.57v23.42c0 6.5-5.74 10.9-12.17 12.18l-.14-.27a9 9 0 0 0 5.01-8.13V31.87L44 28.55l-1.42 1.56v18.88l2.03 1.83v.13l-5.49 5.96-6.29-5.75v-.28l2.44-2.57v-29.9l7.17-7.65.14.06v18.14l5.88-6.36 6.16 5.55 1.15-1.22.54.47zM36.02 51.02v-.14l1.42-1.42V17.25l-1.42 1.49v30.05l-2.17 2.16v.14l5.28 4.73.95-1.08zm13.8-20.24L45.42 27l-.94 1.02 3.92 3.52v24.36c0 1.63-.33 3.32-.94 4.26l.06.07c1.7-1.22 2.3-3.04 2.3-5.41zm15.9 11.71v3.45l6.57 5.15 3.8-4.06.53.54-8.8 9.4-8.93-7.17-1.35 1.42-.54-.54 1.56-1.62V31.93l12.79-9.33 6.7 10.82zm-5 5.96v-17.2l-1.42 1.02v16.85l8.4 6.84 1.07-1.15zm5.14-20.85-.13.07v13.87l6.02-4.4zm1.76-1.35-1.21.88 5.95 9.54 1.22-.88zm54.54 30.66-9.41-8.12-7.17 8.12-9.75-8.4V35.25h-1.9c-1.69 0-2.56 1.08-2.97 2.37h-.2a11 11 0 0 1-.34-2.57c0-1.76.47-6.36 5.41-6.36V17.05c0-2.24-2.64-3.12-2.64-6.1 0-3.85 3.66-7.64 10.36-10.01l.27.2c-2.44 1.42-3.72 2.78-3.72 5.69 0 4.46 4.33 3.31 4.33 10.35v2.7l7.92-8.31 8.32 8.18 7.85-8.18 7.58 7.44v25.04zm-24.16-9.48V33.15h-3.8c-1.96 0-2.83 1.29-2.97 2.44l.07.07c.67-.75 1.35-1.15 2.9-1.15h2.37v13.67l8.94 7.71 1.01-1.22zm0-31.06c0-2.77-2.44-3.72-2.44-5.48 0-2.44.95-4.47 2.44-6.36l-.14-.07c-2.03 1.56-3.92 4.06-3.92 6.5 0 2.43 2.64 3.58 2.64 5.75v11.98h1.42zm14.28 6.77-5.15-5.01-2.7 2.77v23.96l6.16 5.21 1.69-1.9zm2.16 24.16V22.2l-5.75-5.7-1.08 1.09 5.41 5.2v25.25l9.14 7.92 1.08-1.02zm13.13-25.04-4.26-4.06-2.44 2.5v24.1l6.63 5.81.07-.07zm2.17-.95-4.94-4.8-1.02 1.08 4.54 4.33v28.29l1.42-1.36zm28.75 35.6-6.43-5.82-5.75 5.82-7.04-6.23-.95 1.01-.54-.54 1.22-1.28V31.73l12.72-9.2 7.31 5.68 1.29-1.35.54.54-1.49 1.56V47.7l3.59 3.32 1.15-1.22.54.48zm-17.32-7.52V31.12l-1.42 1.02v17.93l6.5 5.82 1.08-1.08zm10.9-17.8-5.56-4.32-.2.13v19.7l4.6 3.99 1.15-1.15zM154.21 50V30.58l-5.75-4.67-1.36.95 5.69 4.47v19.35l5.68 5.14 1.02-1.08zm23.95-15.16h6.97v14.49l-10.76 7.58a7.8 7.8 0 0 0-5.95-2.78c-2.03 0-3.66.68-5.82 2.5l-.34-.13 9.2-13.4h-5.68V30.51l11.3-7.85c1.35 1.09 2.37 1.7 4.13 1.7 1.35 0 3.32-.28 4.8-1.5l.28.14zm-7.58 17.33c-1.96 0-3.51.68-4.87 1.62v.14a8 8 0 0 1 3.18-.61c1.56 0 4 .75 5.62 2.64l1.56-1.15c-1.29-1.49-2.85-2.64-5.49-2.64m7.24-11.37h-3.79l-7.91 11.44.06.13c1.97-1.42 3.86-2.36 6.16-2.36 2.03 0 4.13.94 5.42 2.57l.06-.07zm-9.88 0V29.9l-1.42 1.02V42.3h5.48l1.09-1.49zm14.15-13.26c-1.42 1.01-2.23 1.55-4.6 1.55-1.36 0-2.98-.6-4.27-1.96l-.13.07v9.88h2.57l6.5-9.48zm-3.25-.61a4.9 4.9 0 0 1-3.79-1.96l-1.7 1.15c1.3 1.55 2.51 2.23 4.4 2.23a7.3 7.3 0 0 0 4.81-1.9l.07-.2c-1.15.47-2.57.68-3.79.68M180 38.57h-4.4l-1.01 1.42h3.99v13.13L180 52.1zm28.5-9.68V52.3c0 6.5-5.76 10.9-12.19 12.19l-.13-.28a9 9 0 0 0 5-8.12V31.87l-3.65-3.32-1.42 1.56v18.88l2.03 1.83v.13l-5.48 5.96-6.3-5.75v-.28l2.44-2.57v-29.9l7.17-7.65.14.06v18.14L202 22.6l6.15 5.55 1.15-1.22.55.47zm-18.96 22.13v-.14l1.42-1.42V17.25l-1.42 1.49v30.05l-2.16 2.16v.14l5.28 4.73.94-1.08zm13.8-20.24-4.4-3.79-.94 1.02 3.93 3.52v24.36c0 1.63-.34 3.32-.95 4.26l.07.07c1.69-1.22 2.3-3.04 2.3-5.41zm17.47 26.13-5.82-5.35-1.36 1.42-.54-.54 1.56-1.7V31.2l-2.84-2.7-1.09 1.21-.54-.54 6.1-6.63 5.4 4.87 1.36-1.49.6.48-1.68 1.82v19.76l3.25 3.05 1.48-1.56.55.54zm-4-6.63V30.1l-3.51-3.25-.95 1.08 3.04 2.91v20.1l5.42 4.87 1.01-1.08zm2.04-28.3-5.55-5.07 5.07-5.41 5.55 5.07zm-3.46-6.15-1.01 1.01 4.4 4.13 1.01-1.15zm34.03 41.08-5.88-5.35V31.8l-3.6-3.25-1.89 2.03v18.27l2.1 1.97v.27l-5.55 5.82-6.3-5.76v-.2l2.45-2.57V31.33l-3.19-2.91-1.28 1.42-.54-.54 6.16-6.7 6.15 5.48v1.35l6.43-6.83L250.5 28l1.36-1.42.6.54-1.62 1.7v19.35l3.05 2.84 1.49-1.63.54.54zM231.56 51v-.13c0 .14 1.35-1.35 1.35-1.35V30.31l-3.86-3.52-.94 1.02 3.38 3.1v17.87l-2.1 2.17v.13l5.21 4.74 1.08-1.15zm14.14-.53V30.65l-4.2-3.79-1.08 1.15 3.86 3.45v19.7l5.07 4.73 1.09-1.15zm22.8 18.6c-2.23-2.43-3.78-3.44-5.88-3.44-2.23 0-4.8.88-7.44 2.3l-.2-.2 9.33-10.83-6.63-5.28-1.29 1.35-.54-.47 1.49-1.62V31.73l12.86-9.2 7.17 5.68 1.22-1.35.54.54-1.42 1.56V52.1c0 3.52 1.96 3.39 1.96 6.03 0 3.04-4.4 5.88-11.16 10.96m-9-18.74V31.2l-1.41 1.02v18.74l6.7 5.42 1.01-1.22zm4.74 13.54q-3.33.01-6.15 1.96v.13c1.21-.47 2.57-1.08 4.87-1.08 2.1 0 3.85 1.15 5.61 3.18l1.36-1.08c-1.7-1.96-3.72-3.11-5.69-3.11m8.26-6.5c-1.7-1.08-2.1-2.23-2.1-5.14v-1.22l-11.23 13 .07.06c2.16-1.29 4.12-2.23 7.3-2.23 2.71 0 4.54 1.08 6.64 2.84 1.28-1.09 2.16-2.17 2.16-3.86 0-1.35-1.15-2.37-2.84-3.45m-2.1-25.78-5.62-4.4-.13.13v20.78l4.33 3.38 1.42-1.62zm4.13 24.83c-1.76-1.35-1.96-2.5-1.96-5.41V30.45l-5.69-4.6-1.28.87 5.54 4.4v20.85c0 2.9.14 3.72 1.97 4.94 1.62 1.08 2.9 2.23 2.9 3.79 0 .4-.06 1.08-.06 1.08l.07.07c.34-.34.74-.88.74-1.76 0-1.5-.74-2.5-2.23-3.66m16.24.48-6.22-4.88-1.3 1.42-.53-.54 1.49-1.62V27.6h-3.93l-.13-.13 2.36-3.52h1.7v-4.53l7.17-7.65.13.13v12.05h5.42l.13.14-2.37 3.51h-3.18v20.51l3.73 2.84 1.42-1.55.54.54zm-4.4-38.65-1.42 1.56v4.13h1.42zm0 32.35v-23h-1.42v23.82l5.75 4.46 1.02-1.08zm32.96-21.04V48.5l-11.44 8.46-8.6-6.5-1 1.16-.55-.54 1.22-1.36V31.2l11.98-8.6 7.98 6.23 1.29-1.35.54.54zm-18.2 19.49V30.58l-1.43 1.02v18.2l8.12 6.23 1.29-.95zm10.89-17.26-5.68-4.47-.07.07v20.17l5.75 4.33zm2.17-1.22-6.3-4.87-1.28.95 6.15 4.73v21.05l1.43-1.08zm30.99 26.33-5.89-5.35V31.8l-3.59-3.25-1.89 2.03v18.27l2.1 1.97v.27l-5.55 5.82-6.3-5.76v-.2l2.44-2.57V31.33l-3.18-2.91-1.28 1.42-.55-.54 6.16-6.7 6.16 5.48v1.35l6.43-6.83 6.02 5.41 1.36-1.42.6.54-1.62 1.7v19.35l3.05 2.84 1.48-1.63.55.54zM327.31 51v-.13c0 .14 1.36-1.35 1.36-1.35V30.31l-3.86-3.52-.95 1.02 3.39 3.1v17.87l-2.1 2.17v.13l5.21 4.74 1.08-1.15zm14.15-.53V30.65l-4.2-3.79-1.08 1.15 3.86 3.45v19.7l5.07 4.73 1.08-1.15zm45.53 6.43c-1.9-2.03-2.58-2.71-4.8-3.32v13.26l-.15.07-2.7-2.44-7.85 7.24-.14-.06v-18.2a15 15 0 0 0-7.3 4.19l-.14-.07c.47-5.2 3.04-9.06 7.44-10.55v-13.2h-1.42c-1.96 0-3.05 1.01-4 2.84h-.2c-.2-.6-.33-1.56-.33-3.11 0-2.84 2.1-5.82 5.55-5.82h.4v-7.3l-2.77-2.51-1.36 1.35-.47-.47 6.83-7.24 6.36 5.82v6.15l1.5-1.62v-7.78h.74v7.1l9-9.68 7.64 6.98v29.43zm-15.64-5.96a8.8 8.8 0 0 0-6.02 4.47l.07.13a13 13 0 0 1 5.95-2.9zm2.17-19.42h-3.72c-2.57 0-3.59 1.62-3.66 3.52l.07.07c.81-1.36 1.62-1.83 3.25-2.03h2.64v36.88l1.42-1.36zm0-12.18-3.38-3.11-1.09 1.15 3.05 2.7v7.65h1.42zm7.92 3.86-1.5 1.55v39.19l1.5 1.35zm8.86-1.56L386.31 18l-4.13 4.46v23.82c3.52.34 5.96 1.36 8.05 3.66l.07-.07zm-8.12 29.3v1.76c2.3.54 3.25 1.22 4.87 3.11l1.56-1.21a8.8 8.8 0 0 0-6.43-3.66m10.29-30.38-4.6-4.27-1.09 1.15 4.27 3.93v31.47l1.42-1.09zm29.98 9v18.95L411 56.97l-8.6-6.5-1.01 1.16-.54-.54 1.22-1.36V31.2l11.97-8.6 7.99 6.23 1.28-1.35.55.54zm-18.2 19.49V30.58l-1.43 1.02v18.2l8.12 6.23 1.29-.95zm10.89-17.26-5.69-4.47-.06.07v20.17l5.75 4.33zm2.16-1.22-6.29-4.87-1.28.95 6.15 4.73v21.05l1.42-1.08zm20.85 4.27h6.97v14.48l-10.76 7.58a7.8 7.8 0 0 0-5.96-2.78c-2.03 0-3.65.68-5.82 2.5l-.34-.13 9.2-13.4h-5.68V30.51l11.3-7.85c1.36 1.09 2.37 1.7 4.13 1.7 1.36 0 3.32-.28 4.8-1.5l.28.14zm-7.58 17.32c-1.97 0-3.52.68-4.88 1.62v.14a8 8 0 0 1 3.19-.61c1.55 0 3.99.75 5.61 2.64l1.56-1.15c-1.29-1.49-2.84-2.64-5.48-2.64m7.24-11.37H434l-7.9 11.44.06.13c1.96-1.42 3.86-2.36 6.16-2.36 2.03 0 4.13.94 5.41 2.57l.07-.07zm-9.88 0V29.9l-1.42 1.02V42.3h5.48l1.08-1.49zm14.14-13.26c-1.42 1.01-2.23 1.55-4.6 1.55-1.36 0-2.98-.6-4.26-1.96l-.14.07v9.88h2.57l6.5-9.48zm-3.25-.61a4.9 4.9 0 0 1-3.79-1.96l-1.69 1.15c1.29 1.55 2.5 2.23 4.4 2.23a7.3 7.3 0 0 0 4.8-1.9l.07-.2c-1.15.47-2.57.68-3.79.68m1.15 11.64h-4.4l-1 1.42h3.98v13.13l1.42-1.02zm16.38 18.34-6.23-4.88-1.28 1.42-.54-.54 1.49-1.62V27.6h-3.93l-.13-.13 2.36-3.52h1.7v-4.53l7.17-7.65.13.13v12.05h5.42l.13.14-2.36 3.51h-3.18v20.51l3.72 2.84 1.42-1.55.54.54zm-4.4-38.64-1.42 1.55v4.13h1.42zm0 32.34v-23h-1.42v23.82l5.75 4.46 1.02-1.08z"/></svg>
