<svg fill="currentColor" xmlns="http://www.w3.org/2000/svg" xml:space="preserve" width="349.5" height="58.5" viewBox="0 0 349.5 58.5"><defs><clipPath id="a" clipPathUnits="userSpaceOnUse"><path d="M170.8 452h650v100h-650z" style="clip-rule:evenodd"/></clipPath></defs><g clip-path="url(#a)" transform="translate(-88.9 -239.3)scale(.53496)"><path d="m73 6-.1 6.4-.6.5L66.7 6v4.8q-.1 1.4 1.6 1.4v.3h-4v-.3q1.5 0 1.4-1.4l.2-4.1c0-1.4-.2-1.8-1.4-2.2v-.3h2.3l5.4 6.5-.1-4.7q0-1.4-1.5-1.5v-.3h3.9v.3Q73 4.8 73 6.1m10.1 6.5h-7v-.3q1.7 0 1.5-1.4V6.1q.1-1.3-1.1-1.5v-.3h6.3l.2 1.9-.3.1a2 2 0 0 0-.9-1.1 2 2 0 0 0-1.3-.4H79V8h1.2c1 0 1.1-.3 1.4-1.2h.3v3h-.3c-.3-1-.5-1.2-1.4-1.2H79v2.3c0 1 .2 1.1 1.7 1.1 1.3 0 1.8-.3 2.6-1.6h.3zM96.8 6l-2.2 5.8-.7 1-2.2-6.4-2.4 5.5q0 .6-.5 1l-2.6-7.5q-.2-.6-1-.8v-.3h3v.3q-.6.2-.6.5v.5l1.6 4.8 1.7-4q.3-.4.2-1 .1-.6-1-.8v-.3h3.3v.3q-.8.1-.8.7l.1.4 1.8 4.8 1.2-3.8.3-1.3q.1-.5-1-.8v-.3h3.3v.3l-1 .5q-.4.4-.5 1m14.2 6.5h-7v-.3q1.7 0 1.5-1.4V6.1q.2-1.3-1.2-1.5v-.3h6.4l.2 1.9-.3.1a2 2 0 0 0-.9-1.1 2 2 0 0 0-1.3-.4h-1.6V8h1.2c1 0 1.1-.3 1.4-1.2h.3v3h-.3q-.3-1.3-1.4-1.2h-1.2v2.3c0 1 .2 1.1 1.7 1.1 1.3 0 1.8-.3 2.6-1.6h.3zm11.6-6.5-.2 6.3-.5.5-5.7-6.8.1 4.8q-.1 1.4 1.6 1.4v.3h-4v-.3q1.5 0 1.4-1.4l.2-4.1c0-1.4-.3-1.8-1.4-2.2v-.3h2.2l5.5 6.5-.2-4.7q.1-1.3-1.4-1.5v-.3h3.8v.3q-1.4.1-1.4 1.5m11.5 4v1l.2 1.2h-.5l-1.3.3-2 .2a4 4 0 0 1-4.4-2.4 4 4 0 0 1-.4-1.8c0-2.7 1.8-4.5 5-4.5q1.5 0 3 .6l.2 2-.3.2c-1-1.7-1.7-2.2-3.2-2.2q-3 .2-3.2 3.8a3 3 0 0 0 1 2.6 3 3 0 0 0 2.6 1q1.9 0 2-1.4v-.4q0-1.4-1.5-1.4v-.4h4v.3q-1.3.3-1.2 1.4m9.8 2.4H137v-.3q1.6 0 1.5-1.4V6.3c0-1.1-.2-1.4-1-1.7v-.3h3.8v.3q-1.6 0-1.5 1.4v4.8q0 1.3 1.6 1.2 1.8.2 2.4-2.3l.4.1zm7.6-3.4h-2.8l1.3-3.9zm3.2 3.4v-.3q-.7-.3-.9-.8L151 4.2h-1l-2.7 6.7c-.4 1-.6 1.1-1.4 1.4v.3h3.2v-.3l-.9-.3-.2-.4.2-.8.3-1h3.4l.5 1.4.2.5q0 .5-.7.6v.3zm10.4-6.5-.2 6.3-.5.5-5.7-6.8.1 4.8q-.1 1.4 1.6 1.4v.3h-4.1v-.3q1.5 0 1.5-1.4l.2-4.1c0-1.4-.3-1.8-1.5-2.2v-.3h2.3l5.4 6.5V6q0-1.3-1.6-1.5v-.3h4v.3q-1.6.1-1.5 1.5m11 2.5a3.4 3.4 0 0 1-2.3 3.2l-1.4.3q-1.5 0-1.4-1.4V5q1.6-.1 2.8.5.8.3 1.2.8 1 1 1 2.3m1.5-.1q0-1.2-.7-2.1T175.2 5q-1.6-.7-3.3-.7l-2.2.1-1.2.1V5q1.2-.1 1.1 1.3v4.5q.1 1.5-1.5 1.5v.3h2.5l2.1.1c2.9 0 4.8-1.6 4.8-4.1M42 30.5q1.3-.5 2-1.5t.7-2.1v-6q.1-1.2-1.5-1.3v-.3h4.2v.4Q46 19.7 46 21l-.1 5.5a4 4 0 0 1-2.1 3.7q-.7.4-1.5.4zm14.7-6.7c0 2-1.2 3.5-2.9 3.5-1.9 0-3.3-1.7-3.3-4 0-2 1.2-3.5 2.8-3.5 2 0 3.4 1.7 3.4 4m1.5-.2a4.3 4.3 0 0 0-4.6-4.4c-2.9 0-4.7 1.8-4.7 4.4a4 4 0 0 0 3 4q.7.3 1.6.3c2.8 0 4.7-1.8 4.7-4.3m10-2.4v3c-.2 2-.4 2.3-1 2.9q-1.2 1-2.7.8-1.1 0-2.2-.6-.5-.2-.8-.7-.7-.9-.5-2.1v-3.2q.1-1.3-1-1.6v-.3h3.8v.3q-1.6.1-1.5 1.5v3.2q0 1.2.9 2 .7.7 1.7.7t1.8-.6q.8-.9.6-2v-3.3q0-1.3-1.5-1.5v-.3h3.6v.3c-1 .3-1.1.5-1.2 1.5m8.2.7q0 1.2-.9 1.7l-.8.1-1-.2V20c1.4 0 1.6.1 2.1.5q.6.6.6 1.4m3.9 5.8v-.2a3 3 0 0 1-1.8-.7q-1.4-1.4-2.4-3 .8-.4 1.2-1.2.3-.6.3-1.3 0-2-2.4-2l-1.8.2-2.3-.2v.4q1.4.3 1.2 1.6V26q.1 1.3-1.3 1.3v.4h4v-.4q-1.4 0-1.3-1.3v-1.8H75q.8 1.6 2 2.7a3 3 0 0 0 2.1 1q.7 0 1.3-.2m10-6.6-.3 6.4-.5.5-5.7-6.8.1 4.8q-.1 1.4 1.6 1.3v.4h-4v-.4q1.4.1 1.4-1.3l.2-4.2q.2-1.7-1.5-2v-.4H84l5.5 6.5-.2-4.8q.1-1.3-1.4-1.4v-.3h3.8v.3q-1.4.2-1.4 1.4m8 3.2h-2.8l1.3-4zm3.2 3.4v-.4q-.7-.2-.9-.7l-2.9-7.3h-1L94 26c-.4 1-.6 1.1-1.4 1.3v.4h3.3v-.4q-.9 0-1-.3l-.2-.4.2-.7.3-1h3.4l.5 1.4.2.5q0 .4-.7.5v.4zm8.7 0h-6.8v-.4q1.5.1 1.4-1.3v-4.6c0-1.1-.2-1.4-1-1.7v-.3h3.8v.3q-1.5 0-1.4 1.3v5q-.1 1.3 1.6 1.2 1.7.1 2.4-2.3l.3.1zm27.3 0v-.4q.9 0 .8-.9l-.5-5.5-3 7.1-3-7-.4 4.3-.1.8q0 1 1.2 1.2v.4H129v-.4q1.4-.2 1.4-1.2l.7-4.4.1-1.2q0-.8-1.2-.8v-.3h2.5l2.7 6 2.6-6h2.5v.3q-1.3 0-1.2.8v.3l.6 5.7q0 .9.9.8v.4zm12 0h-7v-.4q1.5.1 1.4-1.3v-4.8q.1-1.3-1.1-1.5v-.3h6.3l.2 1.9h-.3a2 2 0 0 0-.8-1 2 2 0 0 0-1.4-.4h-1.5V23h1.2q1 0 1.3-1.3h.4v3h-.4q-.2-1-1.3-1.1h-1.2v2.2c0 1 .2 1.2 1.6 1.2 1.3 0 1.8-.3 2.6-1.6h.4zm10.5-4a3.4 3.4 0 0 1-2.3 3.2q-.6.3-1.3.2-1.5 0-1.5-1.3V20q1.5 0 3 .6.6.3 1 .8 1.2 1 1 2.3m1.5-.1q0-1.2-.6-2.1t-1.7-1.5q-1.4-.6-3.2-.6l-2.2.1h-1.3v.4q1.3 0 1.2 1.4v4.5q.1 1.4-1.5 1.5v.3h2.5l2.1.1c2.8 0 4.7-1.6 4.7-4.1m2.2 4v-.3q1.6 0 1.5-1.3v-4.9q.1-1.3-1.4-1.4v-.3h4.2v.3q-1.6 0-1.5 1.4v5q0 1.3 1.5 1.2v.4zm14 0-2.7.3a4.2 4.2 0 0 1-4.6-4.3c0-2.6 1.7-4.4 4.7-4.4q1.5 0 2.7.7v2h-.3l-1-1.6q-.7-.5-1.6-.5c-1.9 0-3 1.5-3 3.6 0 2.2 1.5 3.9 3 3.9q1 0 1.9-.7t1-1.5l.4.1zm2.8 0v-.3q1.5 0 1.4-1.3v-4.9q.1-1.3-1.3-1.4v-.3h4.2v.3q-1.6 0-1.5 1.4v5q-.2 1.3 1.5 1.2v.4zm15.4-6.5-.2 6.4-.6.5-5.6-6.8V26q-.1 1.4 1.6 1.3v.4h-4v-.4q1.5.1 1.4-1.3l.2-4.2c0-1.3-.2-1.7-1.4-2v-.4h2.3l5.4 6.5-.1-4.7q0-1.4-1.5-1.5v-.3h3.9v.3q-1.5.2-1.4 1.5m9.9 6.5h-7v-.4q1.5.1 1.4-1.3v-4.8q.1-1.4-1.1-1.5v-.3h6.3l.3 1.9h-.4a2 2 0 0 0-.8-1 2 2 0 0 0-1.4-.4h-1.5V23h1.2c.9-.1 1-.3 1.3-1.3h.4v3h-.4q-.2-1-1.3-1.1h-1.2v2.2c0 1 .2 1.2 1.6 1.2q1.8.2 2.6-1.6h.4zM42.2 5.5v-.4H48v2l-.5-.2-.2-1.1-.2-.1h-1.7l-.3 6.2.1.1.9.4v.2h-3l.2-.2.9-.4.4-6.2H43l-.1.1-.5 1.1-.3.2zm9.3 3.6v-.6l-.1-.5H51l-1.4.8v2l-.1.9v.8h-.9l.4-6.7-.6-1.2 1.4-.3.1.1v.9l-.1 1-.2 2 .1.1 1-1q.4-.3.9-.3t.6.9l-.2 3.5v.1h.8q0 .4-.4.7t-1 .3h-.2Zm3.6 3.5q-.6 0-1-.5-.4-.7-.4-1.6 0-.7.2-1.3l.4-1.1.7-.8q.4-.3.8-.2Q57 7 57 8l-.2.7-.5.6-.8.4-.8.4v.9q0 .3.2.5l.2.3h.8l.3-.2.6-.3v.1l-.7.8q-.4.3-1 .3m0-4.8-.3.8-.2 1.2 1.2-.7.3-.9V8l-.4-.2zm60.8 18.1q0-.8.2-1.4 0-.7.4-1.2l.9-.9 1.1-.3q.8 0 1.2.6.5.7.4 1.7l-.1 1.4-.5 1.2q-.3.6-.8.9l-1.2.3q-.7 0-1.2-.6t-.4-1.7m1-.2v.8l.2.6.3.2.6.1h.6l.2-.5.4-1.4v-1.7l-.2-.6-.4-.2-.5-.1h-.6l-.3.5-.3 1.5zm4-3.3h1V21q0-.9.7-1.5t1.3-.5h.8l.6.3-.3.8-.7-.4-.8-.3-.2.2q-.2 0-.2.3l-.1.5-.1.8v1h1.2v.7h-1.3l-.3 5q0 1.2-.7 2.2-.5.7-1.4.7h-.7l-.7-.3.4-.9 1.4.7.4-.2.2-.5.1-.7.1-1 .3-5h-1z" style="fill:#000;fill-opacity:1;fill-rule:nonzero;stroke:none" transform="translate(170.8 452)scale(3.125)"/><path d="M13.7 10.1h.8l-.1-.1-.1-.2V8.5l-.1-.2h-.4l-.1.1v.1q.2 0 .2.2v1.2zm2.4 0-.1.1h.8l-.1-.1-.1-.2V8.5l-.2-.2h-.3l-.1.1v.1q.3 0 .2.2v1.2zm-4.7 6.7-.2.2q0 .4.6.4t.7-.6q0-.3-.3-.5v-.1q.2-.2.1-.4 0-.3-.2-.4h-.3q-.5 0-.5.3t.2.2h.1v-.3l.1-.1q.2 0 .2.3l-.1.4h-.2l.1.1q.4.1.4.5t-.3.4-.2-.2zm3.6 4.6-.4.2-.2.4q0 .6.5.6h.2l.1.1q0 .3-.3.4l-.2.2h.1q.3 0 .5-.2.4-.4.4-1t-.7-.7m0 1q-.2 0-.2-.4t.3-.4q.1-.1.2.4 0 .5-.2.4m-.5-12.7q0 .3.2.4l.4.2q.4 0 .5-.2.3-.2.2-.4t-.2-.5l.1-.4q0-.5-.5-.5l-.4.1-.1.4V9q.2 0 0 .1zm.7-1.2.2.3q0 .3-.2.3t-.2-.3.2-.3m0 .8q.2 0 .3.4t-.3.4q-.3.1-.3-.4t.3-.4m5 7.4q0 .3.3.5l.4.1q.3 0 .5-.2l.2-.4q0-.3-.3-.4v-.1l.2-.4q0-.3-.6-.4h-.3l-.2.4.1.3v.2zm.7-1.2q.2 0 .2.3t-.2.3l-.1-.3zm0 .8q.3 0 .3.4t-.3.4q-.2.1-.2-.4t.2-.4m3.6.4q0-.3-.2-.4v-.1l.1-.4q0-.3-.5-.4h-.4l-.1.4v.3q.2 0 0 .2l-.2.4q0 .3.2.5l.4.1q.4 0 .5-.2.3 0 .2-.4m-.6-1.2.2.3q0 .3-.2.3t-.2-.3.2-.3m0 1.6q-.3.1-.3-.4t.3-.4.3.4-.3.4m-14.5-.8.2-.4q0-.3-.6-.5l-.3.2-.2.3.1.3v.2l-.2.4q0 .3.2.5l.4.1q.3 0 .5-.2l.2-.4q0-.3-.3-.4m-.4-.8q.2 0 .2.3t-.2.3l-.1-.3zm0 1.6q-.2.1-.2-.4t.2-.4.3.4-.3.4m9.4 5.2.2-.4q0-.4-.6-.4l-.3.1-.2.3.1.4-.2.6.2.4.4.2q.3 0 .5-.2l.2-.5q0-.3-.3-.4m-.4-.7q.2 0 .2.3t-.2.2L18 22zm0 1.6q-.2 0-.2-.4 0-.6.2-.5t.3.5q0 .4-.3.4m1.5-6h-.1v.1h.8l-.1-.1-.1-.3v-1.3l-.1-.2h-.5v.2q.3 0 .2.2v1.1zm3.3-.8.2-.5-.2-.4-.5-.2q-.5.1-.5.5 0 .3.2.3l.2-.2v-.2h.1q.3 0 .3.3t-.2.4l-.5.5-.2.3.2.1h1V17l-.1.1-.2.1h-.4zm-12.8.5-.2.3.2.1h1V17l-.1.1-.2.1h-.4l.6-.6.2-.5-.2-.4-.5-.1q-.5 0-.5.4 0 .3.2.3l.2-.2v-.2h.1q.3 0 .3.3t-.2.4zm7 5.5.1-.5q0-.3-.2-.4l-.4-.1q-.6 0-.6.4 0 .3.2.3t.2-.2v-.2h.2q.2 0 .2.3l-.1.4-.6.5-.2.3.2.1h1l.1-.3v-.1H17l-.2.1h-.3c-.2 0 .4-.4.5-.6m.2-12.6q-.2.3-.1.4h1.1l.1-.3V10H18l-.2.1h-.3c-.2 0 .4-.4.6-.6q.2-.2.1-.5 0-.3-.2-.4l-.4-.1q-.5 0-.5.4 0 .3.2.3l.1-.2v-.1l.2-.2q.3 0 .2.4l-.1.4zm-9 7.4-.1-.3v-1.3q0-.2-.2-.2h-.4v.2q.2 0 .2.2v1.1l-.1.3h-.2l.1.1h.7zm6 6-.1-.3v-1.3q0-.2-.2-.2h-.4v.2q.2 0 .2.2v1.1l-.1.3h-.2l.1.1h.7z" style="fill:#f30;fill-opacity:1;fill-rule:nonzero;stroke:none" transform="translate(170.8 452)scale(3.125)"/><path d="M21.2 10.4q-3 2-5.5 5L14.5 14q0-.7-.3-1.2-.6-.5-1.3-.4l-.8-.9.7.2h.5l.3-.1.2-.2q0-.3-.5-.6t-1-.2l-.4.2h-.4l-.6-.5-.3-.3-.1-.5h-.8q-.3 0-.5.2t-.1.5v.3l.1.7.3.2.4.8.2.1q0 .7.4 1 .7.4 1.6.4l1.1 1q0 .8.5 1.4.3.3 1 .4l-.5.5-.5.7q0 .3-.4.4a13 13 0 0 0-3.6 4q-.2.5.2.1 1-.8 2.2-1.3l1.5-2.5s1.4-.6 1.4-.9l1-.4.5.4q0 .5.4.9.3.2.8.1l1 1q0 .4.5.9l.9.3 2 1.7q.2.2.4 0V22l-.5-.5-.7-.7q0-.3-.3-.5l-.6-.4-1-.9q0-.5-.4-1l-.8-.3-.9-.8v-.5q.8-.4.6-.6s1.5-.9 1.3-1c0 0 2.4-1.6 1.8-1.8 0 0 1.7-1.4 1-1.5 0 0 1.4-1.3 1-1.7q-.4-.3-1.8.5M12 20.7l-.8.4a8 8 0 0 1 1.7-2q-.3.9-1 1.6m9.4.5.6.6.4.4q.2.1 0 .2h-.2l-.6-.6zm-1-1v.1l.2.2.2.5v.2l-.9-.8q-.4-.4-.4-1zm-.7 0h-.3l.1-.2zm-.3-.6-.1.1H19q0-.2.2-.2M13.7 13h.3l-.2.2h-.3zm-.2 1v-.4l.3-.2.3.2H14v.3h.1l.1.2H14q-.2.1 0 .2l.2.2h-.5q-.3-.2 0-.5M12 11l.2-.2 1 .1.2.4H13q0-.2-.2 0h-.6v.1H12q-.2-.1-.1-.3m-.3.2v.2zm-.4-.2.2.1v.3l-.1-.1zm-.1.2v.3q0-.2-.2-.2v-.2zm-.3.6h-.4v-.5h.4zm-1.3-.6-.2-.2-.2-.5v-.3l.1-.4h.4l.3-.1h.3v.4q0 .3.3.4l.4.4-.6.3-.3.6q-.1-.4-.5-.6m.7.7h.3l.2.1zq-.3.1 0-.1m0 .5q0-.2.3-.2h.2l-.1.2h-.2l-.1.1zm.2.5.1-.3h.2zm.3.1.1-.2h.1zm.3.2V13q.2 0 0 0zm2.2 1L13 14q0-.3-.2-.4h-.2q0 .3-.3.2l-.5-.3-.5-.3-.3-.4.4-.2q.3 0 .5.3 0 .2.2.2l-.2-.5-.4-.3H11l.1-.3.6-.2 1.5 1.4v1.3m0-1.3V13h.2zm.3 2.6q-.3-.1-.1-.3h.2v-.2q-.2 0-.2-.3h.6v.4l-.2.3q0 .2-.3 0m.6.4q0 .3-.3.1V16l.1-.1v-.1h.2zm.3.3-.1-.2h.2zm.5.9.5-.5.4.3c-1 .5-1 .3-1 .2m1.5 0v.2l-1.8-1.6a1 1 0 0 1-.3-.9v-.5l1.3 1.2.5.5q.4.4.3 1m.4.5.2-.1h.1l-.1.2zm.2.5V18h.3zm.2-1 .9.8q.4.5.4 1.1v.2l-1.2-1.1zm3.2-4c1.1-.1-2 1.7-2 1.7 1 0-1 1-1 1q.2 0-.3.4V16l-.5-.3 5.5-4.5c.1.1-.3.6-.3.6.7-.1-1.2 1.4-1.2 1.4m-.7-1-3.6 3.4h-.1q1.4-1.7 3-3.2c2.2-2 3.5-2.4 3.6-2.4z" style="fill:#f30;fill-opacity:1;fill-rule:nonzero;stroke:none" transform="translate(170.8 452)scale(3.125)"/><path d="M9.6 10v.2l.2.1.1.3h.3l-.2-.4q-.2-.3-.4-.2m.5 1-.3-.2-.2-.1.1.4.4.2v-.2m2.6-.1h-.2zm10.5-2.8 1.1-.5-.6 1q0 .3.2.2l2.4-1.4h.1v-.2l-.2-.3H26v.1l-.2.2-1 .6.7-.9.2-.2h.1v-.2l-.4-.4h-.1v.2l-.4.5-.7.3.5-1 .2-.1.2-.1v-.1l-.5-.5h-.2v.2q0 .3-.2.3L23 8q-.1.3.2.3m-2-1.8-.1.1v.1l1.2.8q.1.1.2 0l.3-.4V7l-.3.1H22l-.2-.2v-.2l.4-.7h.1l.2.2v.2h.2l.2-.4v-.2h-.4v-.2l.4-.6h.4l.1.4v.1h.2L24 5v-.2l-1.1-.7h-.2v.2l-.2.3-1 1.5-.2.2M2.6 14.8l.1-.1h.4l1.7.2.3.1.2.1.1-.1.2-1.3-.1-.2h-.7l.4.2v.5q0 .2-.2.2l-.8-.1v-.4h.2q0-.2-.2-.2h-.6l.2.2v.2l-.1.1H3v-.5l.2-.3v-.2h-.5l-.2 1.4zm8-11 .2.3.6 1.6v.6h.2l1.3-.5v-.6l-.2-.1v.4l-.3.2H12l-.3-.8.3-.1h.2v-.2l-.1-.3q0-.2-.2-.2v.2l-.3.1-.3-.7.4-.2h.5v-.1l-.1-.3-.2-.1-1.3.5zm14.8 6.6h-.2v.2l.6 1.1q0 .2.2.1l.5-.3h-.4q-.2 0-.2-.3l-.1-.1v-.2l.7-.4h.1l.1.3v.1h.2l.3-.2.1-.1h-.2l-.1-.3v-.1l.6-.3.3.3v.5h.2l.3-.1v-.2l-.6-1.3h-.2l-.1.2-.3.1-1.5.9zM6 20.6h.2v-.2l-.2-.5-.1.1-.3.2-.6.2h-.2v-.5h-.1l-.4.1-.1.2h.1l.2.3-.7.4-.2-.3V20h-.4l-.1.2.5 1.3h.1l.2-.1.2-.2 1.7-.6zm23.4-3.8-.2.1H29l-1.8-.2-.3-.1-.1-.1-.2.1-.1 1.2.1.2.5.1h.2q0-.2-.3-.3v-.4l.1-.2 2.1.4h.3v-.8M6.8 6.3l.3.3 1.1 1.3.2.3v.1q.2.1.2 0l.5-.4v-.1h-.2l-.3-.3-1.1-1.3-.2-.3v-.2H7l-.4.4v.1zM4.3 9.6l.3.1 1.5 1 .3.1v.2h.3l.2-.6v-.1h-.2l-.3-.2-1.5-.9-.3-.2h-.2l-.3.5v.2zm.6 8.3h.4l.1.1q.2 0 .1-.1v-.5q0-.2-.2-.1l-.1.1h-.3l-1.2.3q-.2 0 0-.1l1.6-.6q.2 0 .1-.2h-.1l-1.8-.5h1.8v-.7H5l-.3.1H2.4v.6l.1.2 1.6.4-1.5.5-.1.2v.7H3l.3-.1zm17.6 9.7-.2-.3-.9-1.5v-.3h.1q.1.3.4.1.2-.1 0-.4l-.3-.2-.4.1q-.5.6-.2 1.1l1 1.7v.2h.1l.5-.2.1-.1v-.1zM29 14.3l-1-.2-1 .3q-.4.4-.4 1l.1.6.2.1h.8q.2 0 .3-.2v-.4l-.1-.1h-.2q0 .3-.3.2-.5 0-.5-.3 0-.5 1.1-.6t1.3.6q-.1.4-.4.4t-.2.2l.2.1h.5l.2-.1v-.7a1 1 0 0 0-.6-.9m-2.8 10.2-.3-.2-1.3-1.1-.2-.3v-.2h-.2l-.4.6q-.4.3-.4.9t.6 1q.5.6 1.4.4.4 0 .6-.4l.4-.4v-.2zm-.6.6q-.4.3-1.2-.3-.9-.9-.4-1.3h.2l1.4 1.4q.2 0 0 .2M3.2 12.2h.4l1.6.7h.3l.1.2h.2l.2-.7a1 1 0 0 0 0-1q-.4-.5-1-.7-.8-.3-1.4.2l-.5.7-.1.5v.1zm.3-.8q.3-.4 1.3-.1 1.1.3 1 1h-.3l-1.9-.6zm16.7 14.7a1 1 0 0 0-.9 0l-.5.6q-.2.6 0 1.2t.7 1q.5.2.9 0 .4 0 .5-.6.2-.6 0-1.2t-.7-1m0 2.5q-.3.2-.8-1-.4-.8 0-1.2t.9 1q.4 1 0 1.2M7 21.6l-.7-.4q-.6 0-1.2.3-.5.4-.7 1-.2.4 0 .8t.8.4 1.1-.4.8-.9q.1-.5 0-.8m-1 1.2q-.9.8-1.3.3-.2-.3.8-1 .8-.7 1.2-.3t-.7 1m12.3 6-.1-1.2q-.1-1.2-1-1.1t-.8 1.2l.1 1.2v.6h.6l-.1-.2V29l-.3-1.3q-.1-.9.4-.8.4-.1.5.9l.1 1v.6h.7l.1-.1-.1-.2zM6.1 9q.5.5 1.2.4.4 0 .6-.3.3-.4 0-.8v-.2l-.2.2v.5q-.4.4-1.3-.3t-.6-1.2q.2-.2.5 0h.3v-.2L6 6.8h-.2l-.1.3q-.2 0-.3.2l-.2.5.1.6z" style="fill:#f30;fill-opacity:1;fill-rule:nonzero;stroke:none" transform="translate(170.8 452)scale(3.125)"/><path d="M26.1 9q0 .2-.2.2t-.3-.2.3-.3.2.3" style="fill:#f30;fill-opacity:1;fill-rule:nonzero;stroke:none" transform="rotate(-1.4 18380.9 -6629)scale(3.125)"/><path d="M23.4 25.8q0 .2-.3.2t-.2-.2.2-.2.3.2" style="fill:#f30;fill-opacity:1;fill-rule:nonzero;stroke:none" transform="rotate(-2 13218.6 -4628.8)scale(3.125)"/><path d="M7.3 24.2q0 .2-.2.2t-.3-.2.3-.2.2.2" style="fill:#f30;fill-opacity:1;fill-rule:nonzero;stroke:none" transform="rotate(-1.9 13876.9 -4901.5)scale(3.125)"/><path d="M4.5 19q0 .2-.2.2T4 19t.3-.3.2.3" style="fill:#f30;fill-opacity:1;fill-rule:nonzero;stroke:none" transform="rotate(-2 13140 -4642.7)scale(3.125)"/><path d="m9.5 24.8.1-.1q.2 0 0-.2l-1-.8q0-.2-.2 0l-.3.3v.2h.6v.2H9v.2L7.6 26l-.3.2h-.2v.2l.5.4H8v-.2l.2-.3 1-1.3zm2.2 1-.4-.2H11v.2l-.2.3h-.2l-.4-.3v-.4l.2-.1V25l-.5-.2h-.2v.4l-.6 2.6v.2l.3-.1 2-1.9zm-1.2.6-.6.6.2-.8q0-.2 0 0zm16.2-7.8-.2-.2h-.2v.6h.2l.3.2v.1l-.2.5h-.4l-.1-.1h-.2l-.2.6v.1H29V20zm1.3 1.3h-1l.2-.4zm-12.1 6.7h-.6l-.2.1v1.1H15l-.4-1.2h-.2l-.4-.1v.2q.2 0 .2.3l.3.8v.2q-.4-.1-.6.6l.2.6q.2.3.6.3l.8.1.1-.1V29l.2-1.8V27l.2-.1zM15 29l-.1.2-.3-.2v-.3q0-.6.4-.5z" style="fill:#f30;fill-opacity:1;fill-rule:nonzero;stroke:none" transform="translate(170.8 452)scale(3.125)"/><path d="M17.6 6.5a9.6 9.6 0 0 0-8.4 16.3 9.6 9.6 0 0 0 16.3-8.4 10 10 0 0 0-7.9-7.9m0 18.7A9.3 9.3 0 0 1 9.4 9.4a9.3 9.3 0 0 1 15.8 8.2 9 9 0 0 1-7.6 7.6" style="fill:#f30;fill-opacity:1;fill-rule:nonzero;stroke:none" transform="translate(170.8 452)scale(3.125)"/><path d="M18 1.2A14.9 14.9 0 0 0 7.8 28.5a14.9 14.9 0 0 0 18.7-23A15 15 0 0 0 18 1.2m0 29.3A14.6 14.6 0 0 1 8 3.8a14.6 14.6 0 0 1 18.3 22.5 15 15 0 0 1-8.4 4.2" style="fill:#f30;fill-opacity:1;fill-rule:nonzero;stroke:none" transform="translate(170.8 452)scale(3.125)"/><path d="M15.9 0a16 16 0 1 0 .2 32 16 16 0 0 0-.2-32m11 26.7A15.3 15.3 0 1 1 5 5.3a15.3 15.3 0 0 1 22 21.4" style="fill:#f30;fill-opacity:1;fill-rule:nonzero;stroke:none" transform="translate(170.8 452)scale(3.125)"/><path d="M14 4.8V5l.2-.2q.4-.3 1-.4h.1q.1.4-.1.8l-.1.2H17l-.1-.2q-.3-.4-.2-.8h.2q.6 0 1 .4V5l.1-.2q.3-.7.2-1.5v-.1h-.1q-1.2.4-1.3.1v-.1l.2-.6v-.2h-2.1v.2l.4.7q-.1.3-1.4 0l-.2-.1v.1zm1.4-1.3v-.3l-.1-.6h1.4l-.2.5q0 .3.2.4.3.3 1.3 0l-.1 1-1-.4q-.3 0-.4.2a1 1 0 0 0 0 .9h-1.1q.3-.5.1-.9l-.4-.2-1 .4-.1-1q1 .3 1.4 0m4 2.4h.1v-.2l.1-.3.5-1.2.1 2 .2.1q.2.1.3-.1l.8-2 .2-.2.2-.1v-.2l-.5-.2h-.2V4l-.4 1h-.1V3.4l-.2-.4H20v.3l-.1.3-.7 1.6-.2.3-.1.1v.1zm7.1 6.2H26v.6h.4l.3-.2 1.2-.3-1.5 1.3v.2q0 .3.3.2l2-.5h.5q.2 0 .1-.1v-.5H29l-.4.1-.9.3 1.1-1 .2-.3-.2-.4-.1-.1-.1.1-.3.1zm1.3 10-.3-.1-1.5-1-.2-.1-.1-.2h-.2l-.2.4v.2h.2l.3.2 1 .6-2-.1-.1.1v.3l2 1.2.2.2v.1h.2l.3-.4v-.2h-.2l-.3-.1-.8-.5h1.8l.2-.4v-.1zm-14.6 4.2v.2l-.1.3-.4 1.2-.3-2-.2-.1q-.1-.1-.3.1l-.7 2-.1.4h-.2l.1.2.4.2h.2v-.5l.4-1 .2 1.5q0 .3.2.3l.4.1h.1v-.6l.6-1.7.2-.2.1-.2v-.1zm-5.1-21 .2.2 1 1.6v.4l.1.1h.1l.4-.3q.2 0 0-.2h-.1l-.2-.3-.7-1H9l1.6 1 .2-.1q.3 0 .1-.3l-1-1.9q-.2 0-.2-.3V4h-.2l-.4.2v.2l.1.1.2.3.5.8L8.6 5q-.1-.2-.3-.1L8 5q-.2 0 0 .2" style="fill:#f30;fill-opacity:1;fill-rule:nonzero;stroke:none" transform="translate(170.8 452)scale(3.125)"/></g></svg>